<svg xmlns="http://www.w3.org/2000/svg" width="200" height="600" viewBox="0 0 200 600" fill="none">
  <path d="M40 0 Q100 50 160 100 Q100 150 40 200 Q100 250 160 300 Q100 350 40 400 Q100 450 160 500 Q100 550 40 600" stroke="#00D4AA" stroke-width="1.5" opacity="0.12"/>
  <path d="M160 0 Q100 50 40 100 Q100 150 160 200 Q100 250 40 300 Q100 350 160 400 Q100 450 40 500 Q100 550 160 600" stroke="#60a5fa" stroke-width="1.5" opacity="0.12"/>
  <line x1="70" y1="50" x2="130" y2="50" stroke="#a78bfa" stroke-width="1" opacity="0.08"/>
  <line x1="50" y1="100" x2="150" y2="100" stroke="#a78bfa" stroke-width="1" opacity="0.08"/>
  <line x1="70" y1="150" x2="130" y2="150" stroke="#a78bfa" stroke-width="1" opacity="0.08"/>
  <line x1="50" y1="200" x2="150" y2="200" stroke="#a78bfa" stroke-width="1" opacity="0.08"/>
  <line x1="70" y1="250" x2="130" y2="250" stroke="#a78bfa" stroke-width="1" opacity="0.08"/>
  <line x1="50" y1="300" x2="150" y2="300" stroke="#a78bfa" stroke-width="1" opacity="0.08"/>
  <line x1="70" y1="350" x2="130" y2="350" stroke="#a78bfa" stroke-width="1" opacity="0.08"/>
  <line x1="50" y1="400" x2="150" y2="400" stroke="#a78bfa" stroke-width="1" opacity="0.08"/>
  <line x1="70" y1="450" x2="130" y2="450" stroke="#a78bfa" stroke-width="1" opacity="0.08"/>
  <line x1="50" y1="500" x2="150" y2="500" stroke="#a78bfa" stroke-width="1" opacity="0.08"/>
  <line x1="70" y1="550" x2="130" y2="550" stroke="#a78bfa" stroke-width="1" opacity="0.08"/>
  <circle cx="70" cy="50" r="3" fill="#00D4AA" opacity="0.15"/>
  <circle cx="130" cy="50" r="3" fill="#60a5fa" opacity="0.15"/>
  <circle cx="50" cy="100" r="3" fill="#00D4AA" opacity="0.15"/>
  <circle cx="150" cy="100" r="3" fill="#60a5fa" opacity="0.15"/>
  <circle cx="70" cy="150" r="3" fill="#00D4AA" opacity="0.15"/>
  <circle cx="130" cy="150" r="3" fill="#60a5fa" opacity="0.15"/>
  <circle cx="50" cy="200" r="3" fill="#00D4AA" opacity="0.15"/>
  <circle cx="150" cy="200" r="3" fill="#60a5fa" opacity="0.15"/>
  <circle cx="70" cy="250" r="3" fill="#00D4AA" opacity="0.15"/>
  <circle cx="130" cy="250" r="3" fill="#60a5fa" opacity="0.15"/>
  <circle cx="50" cy="300" r="3" fill="#00D4AA" opacity="0.15"/>
  <circle cx="150" cy="300" r="3" fill="#60a5fa" opacity="0.15"/>
</svg>